<?xml version="1.0" encoding="iso-8859-1"?>
<!-- Generator: Adobe Illustrator 19.0.0, SVG Export Plug-In . SVG Version: 6.00 Build 0)  -->
<svg version="1.1" id="Capa_1" xmlns="http://www.w3.org/2000/svg" xmlns:xlink="http://www.w3.org/1999/xlink" x="0px" y="0px"
	 viewBox="0 0 512 512" style="enable-background:new 0 0 512 512;" xml:space="preserve">
<g>
	<g>
		<path d="M447.61,278.713c4.2,0,7.604-3.405,7.604-7.604V46.597C455.214,20.904,434.311,0,408.617,0H109.963
			C80.642,0,56.786,23.855,56.786,53.177v405.646c0,8.11,1.777,15.892,5.28,23.132C70.896,500.207,89.696,512,109.963,512h298.653
			c25.694,0,46.597-20.904,46.597-46.597v-38.466c0-4.199-3.404-7.604-7.604-7.604s-7.604,3.405-7.604,7.604v38.466
			c0,17.308-14.082,31.389-31.389,31.389H109.963c-14.473,0-27.9-8.423-34.207-21.46c-2.497-5.159-3.762-10.713-3.762-16.509
			c0-10.134,3.949-19.668,11.112-26.841c7.179-7.17,16.717-11.119,26.857-11.119h298.653c5.936,0,11.711-1.098,17.158-3.262
			c17.885-7.088,29.439-24.102,29.439-43.345v-77.8c0-4.199-3.404-7.604-7.604-7.604s-7.604,3.405-7.604,7.604v77.8
			c0,12.967-7.786,24.431-19.841,29.209c-3.657,1.454-7.542,2.19-11.548,2.19H109.963c-14.199,0-27.555,5.529-37.611,15.573
			c-0.123,0.124-0.237,0.252-0.359,0.377V53.177c0.001-20.936,17.034-37.969,37.97-37.969h8.073v139.071
			c0,2.813,1.553,5.397,4.037,6.716c2.486,1.32,5.497,1.159,7.826-0.417l38.323-25.914l38.323,25.914
			c1.282,0.866,2.768,1.305,4.26,1.305c1.221,0,2.446-0.294,3.566-0.888c2.484-1.319,4.037-3.902,4.037-6.716V95.07
			c0-4.199-3.404-7.604-7.604-7.604c-4.2,0-7.604,3.405-7.604,7.604v44.888l-30.719-20.772c-2.572-1.74-5.946-1.74-8.518,0
			l-30.719,20.772V15.208h69.956v54.513c0,4.199,3.404,7.604,7.604,7.604s7.604-3.405,7.604-7.604V15.208h190.208
			c17.308,0,31.389,14.081,31.389,31.389v224.512C440.006,275.308,443.41,278.713,447.61,278.713z"/>
	</g>
</g>
<g>
	<g>
		<path d="M422.969,431.505c-4.2,0-7.604,3.405-7.604,7.604v22.422c0,5.246-4.267,9.513-9.512,9.513H100.887
			c-4.2,0-7.604,3.405-7.604,7.604s3.404,7.604,7.604,7.604h304.965c13.63,0,24.72-11.09,24.72-24.721v-22.422
			C430.573,434.909,427.169,431.505,422.969,431.505z"/>
	</g>
</g>
<g>
	<g>
		<path d="M396.329,439.276H100.887c-4.2,0-7.604,3.405-7.604,7.604s3.404,7.604,7.604,7.604h295.441c4.2,0,7.604-3.405,7.604-7.604
			S400.529,439.276,396.329,439.276z"/>
	</g>
</g>
<g>
</g>
<g>
</g>
<g>
</g>
<g>
</g>
<g>
</g>
<g>
</g>
<g>
</g>
<g>
</g>
<g>
</g>
<g>
</g>
<g>
</g>
<g>
</g>
<g>
</g>
<g>
</g>
<g>
</g>
</svg>
