<svg height="512" viewBox="0 0 64 64" width="512" xmlns="http://www.w3.org/2000/svg"><g id="Layer_13" data-name="Layer 13"><path d="m31 3h-24a4 4 0 0 0 -4 4v2h32v-2a4 4 0 0 0 -4-4z" fill="#006df0"/><path d="m3 9h32v38h-32z" fill="#ffdaaa"/><path d="m3 47h32v-32a32 32 0 0 1 -32 32z" fill="#ffc477"/><path d="m35 8h10a6 6 0 0 1 6 6v8a0 0 0 0 1 0 0h-22a0 0 0 0 1 0 0v-8a6 6 0 0 1 6-6z" fill="#58595b"/><path d="m31 53h-24a4 4 0 0 1 -4-4v-2h32v2a4 4 0 0 1 -4 4z" fill="#006df0"/><path d="m61 49.81v11.19h-24v-14a3 3 0 0 1 3-3 5 5 0 0 0 5-5v-1l6.97 1.75 1.46.36a9.992 9.992 0 0 1 7.57 9.7z" fill="#d1e7f8"/><path d="m40 44a3 3 0 0 0 -3 3v14h-18v-11.19a9.992 9.992 0 0 1 7.57-9.7l1.46-.36 6.97-1.75v1a5 5 0 0 0 5 5z" fill="#bddbff"/><path d="m26 49.779a3 3 0 1 0 4 0 2.957 2.957 0 0 0 -4 0z" fill="none"/><path d="m30 22a2.006 2.006 0 0 0 -2 2v1a2.006 2.006 0 0 0 2 2h2v-5z" fill="#ffac96"/><path d="m50 27a2.006 2.006 0 0 0 2-2v-1a2.006 2.006 0 0 0 -2-2h-2v5z" fill="#ffac96"/><circle cx="28" cy="52" fill="#ed1c24" r="3"/><path d="m35 33h10a0 0 0 0 1 0 0v6a5 5 0 0 1 -5 5 5 5 0 0 1 -5-5v-6a0 0 0 0 1 0 0z" fill="#ffac96"/><path d="m47.725 18.1a22 22 0 0 1 -15.45 0l-.275-.1v10a8 8 0 0 0 16 0v-10z" fill="#ffb8a5"/><path d="m17 21v-3h-4v3a4.012 4.012 0 0 0 -4 4v12a2.006 2.006 0 0 0 2 2h8a2.006 2.006 0 0 0 2-2v-12a4.012 4.012 0 0 0 -4-4z" fill="#d1e7f8"/><path d="m17 21v-3h-1v2.442a.993.993 0 0 0 .595.908 3.994 3.994 0 0 1 2.405 3.65v12a2.006 2.006 0 0 1 -2 2h2a2.006 2.006 0 0 0 2-2v-12a4.012 4.012 0 0 0 -4-4z" fill="#bddbff"/><path d="m19 18v-3h-8v3h2 4z" fill="#ff5023"/><path d="m9 26h12v8h-12z" fill="#ffcd00"/><path d="m19 26h2v8h-2z" fill="#ebbf00"/><g fill="#58595b"><path d="m42.291 29.3a3.245 3.245 0 0 1 -4.584 0 1 1 0 0 0 -1.407 1.409 5.246 5.246 0 0 0 7.41 0 1 1 0 0 0 -1.419-1.409z"/><path d="m43 26a1 1 0 0 0 1-1v-1a1 1 0 0 0 -2 0v1a1 1 0 0 0 1 1z"/><path d="m37 26a1 1 0 0 0 1-1v-1a1 1 0 0 0 -2 0v1a1 1 0 0 0 1 1z"/></g><path d="m17 7h4a1 1 0 0 0 0-2h-4a1 1 0 0 0 0 2z" fill="#f1f2f2"/><path d="m17 29h-1v-1a1 1 0 0 0 -2 0v1h-1a1 1 0 0 0 0 2h1v1a1 1 0 0 0 2 0v-1h1a1 1 0 0 0 0-2z" fill="#ed1c24"/><path d="m28.01 53a1 1 0 1 0 0-2h-.01a1 1 0 0 0 .01 2z" fill="#f1f2f2"/><path d="m40 46a1 1 0 0 0 -1 1v1a1 1 0 0 0 2 0v-1a1 1 0 0 0 -1-1z" fill="#9bc9ff"/><path d="m48 35h-3v2h3a3 3 0 0 1 3 3v7a1 1 0 0 0 2 0v-7a5.006 5.006 0 0 0 -5-5z" fill="#57a4ff"/><path d="m32 35a5.006 5.006 0 0 0 -5 5v7a1 1 0 0 0 2 0v-7a3 3 0 0 1 3-3h3v-2z" fill="#57a4ff"/><path d="m40 51a1 1 0 0 0 -1 1v1a1 1 0 0 0 2 0v-1a1 1 0 0 0 -1-1z" fill="#9bc9ff"/><path d="m40 56a1 1 0 0 0 -1 1v1a1 1 0 0 0 2 0v-1a1 1 0 0 0 -1-1z" fill="#9bc9ff"/><path d="m26 47v2.779a2.957 2.957 0 0 1 4 0v-2.779a1 1 0 0 0 -1-1h-2a1 1 0 0 0 -1 1z" fill="#006df0"/><path d="m50 47v2.422a4.95 4.95 0 0 1 4 0v-2.422a1 1 0 0 0 -1-1h-2a1 1 0 0 0 -1 1z" fill="#006df0"/><path d="m56 58h-1a1 1 0 0 1 0-2h1v-2a4 4 0 0 0 -8 0v2h1a1 1 0 0 1 0 2h-1a2 2 0 0 1 -2-2v-2a6 6 0 0 1 12 0v2a2 2 0 0 1 -2 2z" fill="#57a4ff"/></g></svg>