<svg id="Capa_1" enable-background="new 0 0 486.565 486.565" height="512" viewBox="0 0 486.565 486.565" width="512" xmlns="http://www.w3.org/2000/svg"><g><path d="m148.744 238.114-145.333 147.661c-4.66 4.709-4.529 12.331.29 16.877l85.04 80.236c4.641 4.379 11.924 4.274 16.436-.239l59.794-58.047z" fill="#ffe5c2"/><path d="m153.734 295.463-4.99-57.35-145.333 147.662c-4.66 4.709-4.529 12.331.29 16.877l23.092 21.787z" fill="#fed2a4"/><g><g id="XMLID_255_"><g><path d="m482.48 85.27-78.514-80.473c-5.592-5.731-14.789-5.788-20.45-.126l-106.961 106.961s-36.08 41.04-36.45 42.04c-3.688 11.058-14.41 18.202-26.035 17.348l-22.025-1.618c-5.04-.37-10.05-.22-14.97.44-15.83 2.09-30.69 9.32-42.17 20.81l-36.93 36.92c-13 13.01-20.64 30.43-21.39 48.8l-1.37 36.45 22.14-21.99c12.2-12.2 33.05-3.54 33.02 13.7l-.01 130.69c0 6.08 2.47 11.58 6.45 15.57.03.03.06.06.09.09 4.076 4.045 9.743 6.488 15.963 6.355 12.047-.258 21.527-10.443 21.527-22.492v-22.442c0 6.08 2.46 11.58 6.45 15.57 4.06 4.06 9.684 6.536 15.892 6.448 12.111-.173 21.688-10.388 21.688-22.5v-16.807c0 6.08 2.47 11.59 6.45 15.57 4.058 4.058 9.706 6.546 15.928 6.447 12.099-.192 21.652-10.409 21.652-22.509v-19.708c0 6.08 2.46 11.58 6.45 15.57 4.06 4.05 9.685 6.526 15.893 6.438 12.111-.173 21.687-10.388 21.687-22.5v-63.777l111.9-141.1 63.971-63.971c5.564-5.568 5.619-14.572.124-20.204z" fill="#ffcfbf"/><g><path d="m403.966 4.797c-5.592-5.731-14.789-5.788-20.45-.126l-106.961 106.961s-36.08 41.04-36.45 42.04c-3.688 11.057-14.41 18.202-26.035 17.348l-22.025-1.618c-5.04-.37-10.05-.22-14.97.44-15.83 2.09-30.69 9.32-42.17 20.81l-36.93 36.92c-13 13.01-20.64 30.43-21.39 48.8l-1.37 36.45 22.14-21.99c3.944-3.944 8.791-5.697 13.545-5.696 3.716-7.72 8.715-14.837 14.876-21.003l38.711-38.701c12.034-12.044 27.611-19.623 44.204-21.814 5.157-.692 10.409-.849 15.692-.461l4.707.515c13.217 1.446 26.377-3.183 35.779-12.585l162.403-162.403z" fill="#ffb09e"/></g><path d="m276.214 112.202c8.49 5.02 13.23 15.27 10.58 25.58s-11.93 17.32-22.31 17.32c-1.08 0-2.17-.07-3.26-.23l-18.69-2.65c-1.05-.15-2.06.45-2.43 1.45l-3.019 9.051c-1.912 5.734-7.472 9.439-13.5 8.996l-31.541-2.317c-5.04-.37-10.05-.22-14.97.44l16.96-37.9c7.56-16.8 24.91-26.98 43.26-25.39l29.16 2.52c3.59.31 6.89 1.42 9.76 3.13z" fill="#ffe5c2"/><path d="m198.365 169.866 8.264-18.467c7.56-16.8 24.91-26.98 43.26-25.39l29.16 2.52c3.052.263 5.91 1.122 8.456 2.418-.367-7.783-4.699-14.849-11.291-18.746-2.87-1.71-6.17-2.82-9.76-3.13l-29.16-2.52c-18.35-1.59-35.7 8.59-43.26 25.39l-16.96 37.9c4.92-.66 9.93-.81 14.97-.44z" fill="#fed2a4"/></g><g><g id="XMLID_257_"><path d="m288.788 387.243c-3.99-3.99-6.45-9.49-6.45-15.57 0-7.676-6.42-13.793-14.087-13.422l-5.797.28v16.28c0 6.08 2.46 11.58 6.45 15.57 3.99 3.98 9.49 6.44 15.57 6.44 4.861 0 9.269-1.632 12.91-4.298-3.305-1.087-6.186-2.877-8.596-5.28z" fill="#ffb09e"/><g><g id="XMLID_259_"><path d="m247.522 410.582c-3.98-3.98-6.45-9.49-6.45-15.57v-13.833c0-12.508-10.14-22.647-22.647-22.647v36.48c0 6.08 2.47 11.59 6.45 15.57s9.49 6.45 15.57 6.45c4.142 0 7.962-1.198 11.27-3.187-1.55-.932-2.924-1.994-4.193-3.263z" fill="#ffb09e"/><g><g id="XMLID_262_"><path d="m204.227 427.872c-3.99-3.99-6.45-9.49-6.45-15.57v-30.387c0-12.914-10.469-23.383-23.383-23.383v53.77c0 6.08 2.46 11.58 6.45 15.57s9.49 6.45 15.57 6.45c4.297 0 8.24-1.281 11.628-3.41-1.405-.884-2.645-1.871-3.815-3.04z" fill="#ffb09e"/></g></g></g></g></g></g></g><g fill="#ffe5c2"><path d="m342.95 302.424c-6.384 10.185-19.815 13.266-29.999 6.882l-17.887-11.211c-10.185-6.384-13.266-19.815-6.882-29.999 6.384-10.185 19.815-13.266 29.999-6.882l17.887 11.211c10.184 6.384 13.265 19.815 6.882 29.999z"/><path d="m374.517 270.857c-6.384 10.185-19.815 13.266-29.999 6.882l-17.887-11.211c-10.185-6.384-13.266-19.815-6.882-29.999 6.384-10.185 19.815-13.266 29.999-6.882l17.887 11.211c10.185 6.383 13.266 19.814 6.882 29.999z"/><path d="m406.085 239.289c-6.384 10.185-19.815 13.266-29.999 6.882l-17.887-11.211c-10.185-6.384-13.266-19.815-6.882-29.999 6.384-10.185 19.815-13.266 29.999-6.882l17.887 11.211c10.184 6.383 13.266 19.814 6.882 29.999z"/><path d="m437.653 207.721c-6.384 10.185-19.815 13.266-29.999 6.882l-17.887-11.211c-10.185-6.384-13.266-19.815-6.882-29.999 6.384-10.185 19.815-13.266 29.999-6.882l17.887 11.211c10.184 6.384 13.265 19.815 6.882 29.999z"/></g><path d="m326.994 292.432-17.887-11.211c-7.666-4.805-11.303-13.602-9.913-22.002-4.403 1.597-8.332 4.602-11.012 8.878-6.384 10.185-3.302 23.616 6.882 29.999l17.887 11.211c10.185 6.384 23.615 3.302 29.999-6.882 1.579-2.519 2.575-5.237 3.031-7.997-6.084 2.206-13.079 1.707-18.987-1.996z" fill="#fed2a4"/><path d="m358.561 260.864-17.887-11.211c-7.666-4.805-11.317-13.618-9.927-22.019-4.403 1.597-8.318 4.618-10.998 8.894-6.384 10.184-3.302 23.616 6.882 29.999l17.887 11.211c10.185 6.384 23.615 3.302 29.999-6.882 1.579-2.519 2.574-5.237 3.031-7.997-6.084 2.207-13.078 1.708-18.987-1.995z" fill="#fed2a4"/><path d="m390.129 229.296-17.887-11.211c-7.666-4.805-11.303-13.623-9.914-22.023-4.403 1.597-8.332 4.623-11.012 8.899-6.384 10.185-3.302 23.616 6.882 29.999l17.887 11.211c10.185 6.384 23.616 3.302 29.999-6.882 1.579-2.519 2.574-5.237 3.031-7.997-6.083 2.206-13.077 1.708-18.986-1.996z" fill="#fed2a4"/><path d="m421.697 197.728-17.887-11.211c-7.666-4.805-11.308-13.621-9.918-22.022-4.403 1.597-8.327 4.621-11.007 8.897-6.384 10.185-3.302 23.616 6.882 29.999l17.887 11.211c10.184 6.384 23.615 3.302 29.999-6.882 1.579-2.519 2.575-5.237 3.031-7.997-6.084 2.208-13.079 1.709-18.987-1.995z" fill="#fed2a4"/></g><path d="m162.076 450.882c-.03-.03-.06-.06-.09-.09-3.98-3.99-6.45-9.49-6.45-15.57l.007-51.518c.002-13.901-11.267-25.172-25.168-25.172l-.01 76.69c0 6.08 2.47 11.58 6.45 15.57.03.03.06.06.09.09 3.97 3.94 9.45 6.36 15.48 6.36 4.684 0 8.975-1.531 12.543-4.025-1.032-.721-1.962-1.452-2.852-2.335z" fill="#ffb09e"/></g></svg>