<?xml version="1.0" encoding="iso-8859-1"?>
<!-- Generator: Adobe Illustrator 19.0.0, SVG Export Plug-In . SVG Version: 6.00 Build 0)  -->
<svg version="1.1" id="Layer_1" xmlns="http://www.w3.org/2000/svg" xmlns:xlink="http://www.w3.org/1999/xlink" x="0px" y="0px"
	 viewBox="0 0 512 512" style="enable-background:new 0 0 512 512;" xml:space="preserve">
<path style="fill:#F3F3FF;" d="M291,442c-122.055,0-221-98.945-221-221S168.945,0,291,0s221,98.945,221,221S413.055,442,291,442z"/>
<path style="fill:#F9F9F9;" d="M481.253,221c0,83.977-46.844,157.003-115.823,194.396c-7.739,4.195-17.329,2.736-23.561-3.482
	l-53.07-52.947c-6.748-6.749-15.766-10.403-25.333-10.248c-9.277,0.15-18.076,4.158-24.637,10.719l-23.569,23.569
	c-4.296,4.296-11.261,4.296-15.557,0l-70.71-70.71c-4.289-4.289-4.289-11.268,0-15.556l24.042-24.041
	c13.669-13.668,13.669-35.829,0-49.498l-63.64-63.64c-2.647-2.647-5.619-4.774-8.785-6.395
	C107.736,68.972,184.004,6.838,275.627,0.541C390.508,8.437,481.253,104.114,481.253,221z"/>
<path style="fill:#FC7F59;" d="M391,196v50c0,5.523-4.477,10-10,10h-55v55c0,5.523-4.477,10-10,10h-50c-5.523,0-10-4.477-10-10v-55
	h-55c-5.523,0-10-4.477-10-10v-50c0-5.523,4.477-10,10-10h55v-55c0-5.523,4.477-10,10-10h50c5.523,0,10,4.477,10,10v55h55
	C386.523,186,391,190.477,391,196z"/>
<path style="fill:#FFEF9F;" d="M232.936,400.686l24.042-24.042c3.905-3.905,10.237-3.905,14.142,0l63.64,63.64
	c3.905,3.905,3.905,10.237,0,14.142l-28.284,28.284c-39.052,39.052-102.369,39.052-141.421,0L29.289,346.946
	c-39.052-39.052-39.052-102.369,0-141.421l28.284-28.284c3.905-3.905,10.237-3.905,14.142,0l63.64,63.64
	c3.905,3.905,3.905,10.237,0,14.142l-24.042,24.042c-14.059,14.059-14.059,36.853,0,50.912l70.711,70.711
	C196.083,414.745,218.877,414.745,232.936,400.686z"/>
<path style="fill:#FC7F59;" d="M313.546,475.64l-7.071,7.071c-39.052,39.052-102.369,39.052-141.421,0L29.289,346.946
	c-39.052-39.053-39.052-102.369,0-141.421l7.071-7.071l9.163,9.163l8.67,8.67l50.785,50.785l9.163,9.163l0,0l0,0l-2.828,2.829
	c-14.059,14.059-14.059,36.853,0,50.912l70.711,70.711c14.059,14.059,36.853,14.059,50.912,0l2.828-2.829l0,0l9.163,9.163l8.67,8.67
	l50.785,50.785L313.546,475.64z"/>
<path style="fill:#EA6049;" d="M128.649,261.729l-77.782-77.782l6.707-6.707c3.905-3.905,10.237-3.905,14.142,0l63.64,63.64
	c3.905,3.905,3.905,10.237,0,14.143L128.649,261.729z M334.76,440.284l-63.64-63.64c-3.905-3.905-10.237-3.905-14.142,0
	l-6.707,6.707l77.782,77.781l6.707-6.707C338.665,450.521,338.665,444.189,334.76,440.284z M179.56,468.204L43.796,332.439
	C7.256,295.9,4.908,238.121,36.745,198.848l-0.389-0.389l-7.066,7.066c-39.052,39.052-39.052,102.369,0,141.421L165.054,482.71
	c39.052,39.053,102.369,39.053,141.421,0l7.067-7.067l-0.389-0.389C273.88,507.092,216.1,504.744,179.56,468.204z"/>
<g>
</g>
<g>
</g>
<g>
</g>
<g>
</g>
<g>
</g>
<g>
</g>
<g>
</g>
<g>
</g>
<g>
</g>
<g>
</g>
<g>
</g>
<g>
</g>
<g>
</g>
<g>
</g>
<g>
</g>
</svg>
